# xmcd
#
# Track frame offsets:
#	150
#	8615
#	22412
#	37122
#	49237
#	69397
#	81954
#	95257
#	108740
#	120270
#
# Disc length: 1749
#
# Revision: 3
# Processed by: cddbd v1.5.1PL0 Copyright (c) Steve Scherf et al.
# Submitted via: CDex 1.50
# Normalized: r1:DSETVAR1,TDELIM( - ),TSWAP
#
DISCID=7f06d30a
DTITLE=Various Artist - After Hour Blues
DYEAR=1998
DGENRE=Blues
TTITLE0=Joe Williams - Baby Please Don't Go
TTITLE1=Etta James - At Last
TTITLE2=Gatemouth Moore - I Ain't Mat At You Pretty Baby
TTITLE3=Denise Lasalle - Trapped By A Thing Called Love
TTITLE4=Big Joe Turner - Nothin' From Nothin' Blues
TTITLE5=Ray  Charles - Leave My Woman Alone
TTITLE6=Billie Holiday - Billie's Blues
TTITLE7=Lightnin' Hopkins - Mojo Hand
TTITLE8=Bo Diddley - Hey Bo Diddley
TTITLE9=John Lee Hooker - Big Fine Woman
EXTD=YEAR: 1998
EXTT0=
EXTT1=
EXTT2=
EXTT3=
EXTT4=
EXTT5=
EXTT6=
EXTT7=
EXTT8=
EXTT9=
PLAYORDER=
